<svg width="787" height="581" viewBox="0 0 787 581" fill="none" xmlns="http://www.w3.org/2000/svg">
<g clip-path="url(#clip0_3_2)">
<path d="M-3.05176e-05 440.364C8.68722 450.801 18.0835 460.61 28.12 469.719L758.7 470.733C768.736 461.624 778.133 451.815 786.82 441.378L-3.05176e-05 440.364Z" fill="#3F3D56"/>
<path d="M495.43 346.368V433.27C495.431 434.378 495.865 435.44 496.637 436.223C497.41 437.006 498.457 437.446 499.549 437.447H626.553C627.646 437.446 628.693 437.006 629.465 436.223C630.237 435.44 630.672 434.378 630.673 433.27V346.368C630.67 345.262 630.235 344.201 629.463 343.419C628.691 342.637 627.645 342.197 626.553 342.196H499.549C498.458 342.197 497.412 342.637 496.639 343.419C495.867 344.201 495.433 345.262 495.43 346.368Z" fill="#3F3D56"/>
<path d="M498.409 347.449V432.198C498.41 432.79 498.643 433.357 499.055 433.776C499.468 434.194 500.027 434.43 500.611 434.431H625.496C626.08 434.43 626.639 434.194 627.052 433.776C627.464 433.357 627.697 432.79 627.698 432.198V347.449C627.698 346.857 627.466 346.289 627.053 345.869C626.64 345.45 626.08 345.214 625.496 345.212H500.611C500.027 345.214 499.467 345.45 499.054 345.869C498.641 346.289 498.409 346.857 498.409 347.449Z" fill="#0284C7"/>
<path d="M492.774 450.219C493.006 450.515 493.302 450.753 493.639 450.916C493.975 451.08 494.344 451.164 494.717 451.162H630.709C631.081 451.161 631.448 451.077 631.784 450.914C632.119 450.752 632.415 450.516 632.649 450.223C632.884 449.93 633.051 449.588 633.138 449.221C633.226 448.855 633.232 448.473 633.155 448.104L631.044 437.936C630.957 437.522 630.768 437.136 630.496 436.814C630.224 436.492 629.877 436.244 629.486 436.093C629.203 435.981 628.902 435.923 628.598 435.923H496.82C496.516 435.923 496.215 435.98 495.932 436.093C495.541 436.244 495.194 436.492 494.922 436.814C494.65 437.136 494.461 437.522 494.374 437.936L492.263 448.104C492.188 448.473 492.195 448.854 492.283 449.22C492.371 449.586 492.539 449.927 492.774 450.219Z" fill="#2F2E41"/>
<path d="M623.932 440.303H627.144C627.414 440.303 627.632 440.081 627.632 439.808V438.249C627.632 437.976 627.414 437.754 627.144 437.754H623.932C623.662 437.754 623.444 437.976 623.444 438.249V439.808C623.444 440.081 623.662 440.303 623.932 440.303Z" fill="#3F3D56"/>
<path d="M615.555 440.303H618.767C619.037 440.303 619.255 440.081 619.255 439.808V438.249C619.255 437.976 619.037 437.754 618.767 437.754H615.555C615.285 437.754 615.067 437.976 615.067 438.249V439.808C615.067 440.081 615.285 440.303 615.555 440.303Z" fill="#3F3D56"/>
<path d="M607.178 440.303H610.39C610.66 440.303 610.878 440.081 610.878 439.808V438.249C610.878 437.976 610.66 437.754 610.39 437.754H607.178C606.908 437.754 606.69 437.976 606.69 438.249V439.808C606.69 440.081 606.908 440.303 607.178 440.303Z" fill="#3F3D56"/>
<path d="M598.801 440.303H602.013C602.283 440.303 602.501 440.081 602.501 439.808V438.249C602.501 437.976 602.283 437.754 602.013 437.754H598.801C598.531 437.754 598.313 437.976 598.313 438.249V439.808C598.313 440.081 598.531 440.303 598.801 440.303Z" fill="#3F3D56"/>
<path d="M590.424 440.303H593.636C593.906 440.303 594.124 440.081 594.124 439.808V438.249C594.124 437.976 593.906 437.754 593.636 437.754H590.424C590.154 437.754 589.936 437.976 589.936 438.249V439.808C589.936 440.081 590.154 440.303 590.424 440.303Z" fill="#3F3D56"/>
<path d="M582.047 440.303H585.259C585.529 440.303 585.747 440.081 585.747 439.808V438.249C585.747 437.976 585.529 437.754 585.259 437.754H582.047C581.777 437.754 581.559 437.976 581.559 438.249V439.808C581.559 440.081 581.777 440.303 582.047 440.303Z" fill="#3F3D56"/>
<path d="M573.67 440.303H576.882C577.152 440.303 577.37 440.081 577.37 439.808V438.249C577.37 437.976 577.152 437.754 576.882 437.754H573.67C573.4 437.754 573.182 437.976 573.182 438.249V439.808C573.182 440.081 573.4 440.303 573.67 440.303Z" fill="#3F3D56"/>
<path d="M565.293 440.303H568.505C568.775 440.303 568.993 440.081 568.993 439.808V438.249C568.993 437.976 568.775 437.754 568.505 437.754H565.293C565.023 437.754 564.805 437.976 564.805 438.249V439.808C564.805 440.081 565.023 440.303 565.293 440.303Z" fill="#3F3D56"/>
<path d="M556.916 440.303H560.128C560.398 440.303 560.616 440.081 560.616 439.808V438.249C560.616 437.976 560.398 437.754 560.128 437.754H556.916C556.647 437.754 556.428 437.976 556.428 438.249V439.808C556.428 440.081 556.647 440.303 556.916 440.303Z" fill="#3F3D56"/>
<path d="M548.539 440.303H551.751C552.021 440.303 552.239 440.081 552.239 439.808V438.249C552.239 437.976 552.021 437.754 551.751 437.754H548.539C548.27 437.754 548.051 437.976 548.051 438.249V439.808C548.051 440.081 548.27 440.303 548.539 440.303Z" fill="#3F3D56"/>
<path d="M540.162 440.303H543.374C543.644 440.303 543.862 440.081 543.862 439.808V438.249C543.862 437.976 543.644 437.754 543.374 437.754H540.162C539.892 437.754 539.674 437.976 539.674 438.249V439.808C539.674 440.081 539.892 440.303 540.162 440.303Z" fill="#3F3D56"/>
<path d="M531.785 440.303H534.997C535.267 440.303 535.485 440.081 535.485 439.808V438.249C535.485 437.976 535.267 437.754 534.997 437.754H531.785C531.516 437.754 531.297 437.976 531.297 438.249V439.808C531.297 440.081 531.516 440.303 531.785 440.303Z" fill="#3F3D56"/>
<path d="M523.408 440.303H526.62C526.89 440.303 527.108 440.081 527.108 439.808V438.249C527.108 437.976 526.89 437.754 526.62 437.754H523.408C523.139 437.754 522.92 437.976 522.92 438.249V439.808C522.92 440.081 523.139 440.303 523.408 440.303Z" fill="#3F3D56"/>
<path d="M515.031 440.303H518.243C518.513 440.303 518.732 440.081 518.732 439.808V438.249C518.732 437.976 518.513 437.754 518.243 437.754H515.031C514.762 437.754 514.543 437.976 514.543 438.249V439.808C514.543 440.081 514.762 440.303 515.031 440.303Z" fill="#3F3D56"/>
<path d="M506.654 440.303H509.866C510.136 440.303 510.355 440.081 510.355 439.808V438.249C510.355 437.976 510.136 437.754 509.866 437.754H506.654C506.385 437.754 506.166 437.976 506.166 438.249V439.808C506.166 440.081 506.385 440.303 506.654 440.303Z" fill="#3F3D56"/>
<path d="M498.277 440.303H501.489C501.759 440.303 501.977 440.081 501.977 439.808V438.249C501.977 437.976 501.759 437.754 501.489 437.754H498.277C498.008 437.754 497.789 437.976 497.789 438.249V439.808C497.789 440.081 498.008 440.303 498.277 440.303Z" fill="#3F3D56"/>
<path d="M624.031 444.55H627.243C627.513 444.55 627.731 444.328 627.731 444.055V442.496C627.731 442.223 627.513 442.001 627.243 442.001H624.031C623.761 442.001 623.543 442.223 623.543 442.496V444.055C623.543 444.328 623.761 444.55 624.031 444.55Z" fill="#3F3D56"/>
<path d="M615.654 444.55H618.866C619.136 444.55 619.354 444.328 619.354 444.055V442.496C619.354 442.223 619.136 442.001 618.866 442.001H615.654C615.384 442.001 615.166 442.223 615.166 442.496V444.055C615.166 444.328 615.384 444.55 615.654 444.55Z" fill="#3F3D56"/>
<path d="M607.277 444.55H610.489C610.759 444.55 610.977 444.328 610.977 444.055V442.496C610.977 442.223 610.759 442.001 610.489 442.001H607.277C607.007 442.001 606.789 442.223 606.789 442.496V444.055C606.789 444.328 607.007 444.55 607.277 444.55Z" fill="#3F3D56"/>
<path d="M598.9 444.55H602.112C602.382 444.55 602.6 444.328 602.6 444.055V442.496C602.6 442.223 602.382 442.001 602.112 442.001H598.9C598.63 442.001 598.412 442.223 598.412 442.496V444.055C598.412 444.328 598.63 444.55 598.9 444.55Z" fill="#3F3D56"/>
<path d="M590.523 444.55H593.735C594.005 444.55 594.223 444.328 594.223 444.055V442.496C594.223 442.223 594.005 442.001 593.735 442.001H590.523C590.253 442.001 590.035 442.223 590.035 442.496V444.055C590.035 444.328 590.253 444.55 590.523 444.55Z" fill="#3F3D56"/>
<path d="M582.146 444.55H585.358C585.628 444.55 585.846 444.328 585.846 444.055V442.496C585.846 442.223 585.628 442.001 585.358 442.001H582.146C581.876 442.001 581.658 442.223 581.658 442.496V444.055C581.658 444.328 581.876 444.55 582.146 444.55Z" fill="#3F3D56"/>
<path d="M573.769 444.55H576.981C577.251 444.55 577.469 444.328 577.469 444.055V442.496C577.469 442.223 577.251 442.001 576.981 442.001H573.769C573.499 442.001 573.281 442.223 573.281 442.496V444.055C573.281 444.328 573.499 444.55 573.769 444.55Z" fill="#3F3D56"/>
<path d="M565.392 444.55H568.604C568.874 444.55 569.092 444.328 569.092 444.055V442.496C569.092 442.223 568.874 442.001 568.604 442.001H565.392C565.122 442.001 564.904 442.223 564.904 442.496V444.055C564.904 444.328 565.122 444.55 565.392 444.55Z" fill="#3F3D56"/>
<path d="M557.015 444.55H560.227C560.497 444.55 560.715 444.328 560.715 444.055V442.496C560.715 442.223 560.497 442.001 560.227 442.001H557.015C556.745 442.001 556.527 442.223 556.527 442.496V444.055C556.527 444.328 556.745 444.55 557.015 444.55Z" fill="#3F3D56"/>
<path d="M548.638 444.55H551.85C552.12 444.55 552.338 444.328 552.338 444.055V442.496C552.338 442.223 552.12 442.001 551.85 442.001H548.638C548.369 442.001 548.15 442.223 548.15 442.496V444.055C548.15 444.328 548.369 444.55 548.638 444.55Z" fill="#3F3D56"/>
<path d="M540.261 444.55H543.473C543.743 444.55 543.961 444.328 543.961 444.055V442.496C543.961 442.223 543.743 442.001 543.473 442.001H540.261C539.991 442.001 539.773 442.223 539.773 442.496V444.055C539.773 444.328 539.991 444.55 540.261 444.55Z" fill="#3F3D56"/>
<path d="M531.884 444.55H535.096C535.366 444.55 535.584 444.328 535.584 444.055V442.496C535.584 442.223 535.366 442.001 535.096 442.001H531.884C531.615 442.001 531.396 442.223 531.396 442.496V444.055C531.396 444.328 531.615 444.55 531.884 444.55Z" fill="#3F3D56"/>
<path d="M523.507 444.55H526.719C526.989 444.55 527.207 444.328 527.207 444.055V442.496C527.207 442.223 526.989 442.001 526.719 442.001H523.507C523.238 442.001 523.019 442.223 523.019 442.496V444.055C523.019 444.328 523.238 444.55 523.507 444.55Z" fill="#3F3D56"/>
<path d="M515.13 444.55H518.342C518.612 444.55 518.831 444.328 518.831 444.055V442.496C518.831 442.223 518.612 442.001 518.342 442.001H515.13C514.861 442.001 514.642 442.223 514.642 442.496V444.055C514.642 444.328 514.861 444.55 515.13 444.55Z" fill="#3F3D56"/>
<path d="M506.753 444.55H509.965C510.235 444.55 510.453 444.328 510.453 444.055V442.496C510.453 442.223 510.235 442.001 509.965 442.001H506.753C506.484 442.001 506.265 442.223 506.265 442.496V444.055C506.265 444.328 506.484 444.55 506.753 444.55Z" fill="#3F3D56"/>
<path d="M498.376 444.55H501.588C501.858 444.55 502.077 444.328 502.077 444.055V442.496C502.077 442.223 501.858 442.001 501.588 442.001H498.376C498.107 442.001 497.888 442.223 497.888 442.496V444.055C497.888 444.328 498.107 444.55 498.376 444.55Z" fill="#3F3D56"/>
<path d="M554.502 449.646H587.034C587.303 449.646 587.522 449.424 587.522 449.151V447.593C587.522 447.319 587.303 447.098 587.034 447.098H554.502C554.232 447.098 554.014 447.319 554.014 447.593V449.151C554.014 449.424 554.232 449.646 554.502 449.646Z" fill="#3F3D56"/>
<path d="M520.036 363.754H517.192C516.33 363.754 515.631 364.462 515.631 365.336C515.631 366.211 516.33 366.919 517.192 366.919H520.036C520.898 366.919 521.597 366.211 521.597 365.336C521.597 364.462 520.898 363.754 520.036 363.754Z" fill="white"/>
<path d="M552.559 363.754H549.715C548.853 363.754 548.154 364.462 548.154 365.336C548.154 366.211 548.853 366.919 549.715 366.919H552.559C553.421 366.919 554.12 366.211 554.12 365.336C554.12 364.462 553.421 363.754 552.559 363.754Z" fill="white"/>
<path d="M561.774 363.754H558.93C558.068 363.754 557.369 364.462 557.369 365.336C557.369 366.211 558.068 366.919 558.93 366.919H561.774C562.636 366.919 563.335 366.211 563.335 365.336C563.335 364.462 562.636 363.754 561.774 363.754Z" fill="white"/>
<path d="M543.712 363.49H526.039C525.176 363.49 524.477 364.198 524.477 365.073C524.477 365.947 525.176 366.655 526.039 366.655H543.712C544.575 366.655 545.274 365.947 545.274 365.073C545.274 364.198 544.575 363.49 543.712 363.49Z" fill="white"/>
<path d="M587.076 363.49H569.403C568.54 363.49 567.841 364.198 567.841 365.073C567.841 365.947 568.54 366.655 569.403 366.655H587.076C587.939 366.655 588.638 365.947 588.638 365.073C588.638 364.198 587.939 363.49 587.076 363.49Z" fill="white"/>
<path d="M528.709 370.899H525.865C525.003 370.899 524.304 371.607 524.304 372.482C524.304 373.356 525.003 374.065 525.865 374.065H528.709C529.571 374.065 530.27 373.356 530.27 372.482C530.27 371.607 529.571 370.899 528.709 370.899Z" fill="white"/>
<path d="M561.232 370.899H558.388C557.526 370.899 556.827 371.607 556.827 372.482C556.827 373.356 557.526 374.065 558.388 374.065H561.232C562.094 374.065 562.793 373.356 562.793 372.482C562.793 371.607 562.094 370.899 561.232 370.899Z" fill="white"/>
<path d="M570.446 370.899H567.603C566.741 370.899 566.042 371.607 566.042 372.482C566.042 373.356 566.741 374.065 567.603 374.065H570.446C571.309 374.065 572.008 373.356 572.008 372.482C572.008 371.607 571.309 370.899 570.446 370.899Z" fill="white"/>
<path d="M552.385 370.635H534.711C533.849 370.635 533.15 371.344 533.15 372.218C533.15 373.092 533.849 373.801 534.711 373.801H552.385C553.247 373.801 553.946 373.092 553.946 372.218C553.946 371.344 553.247 370.635 552.385 370.635Z" fill="white"/>
<path d="M595.749 370.635H578.075C577.213 370.635 576.514 371.344 576.514 372.218C576.514 373.092 577.213 373.801 578.075 373.801H595.749C596.611 373.801 597.31 373.092 597.31 372.218C597.31 371.344 596.611 370.635 595.749 370.635Z" fill="white"/>
<path d="M537.381 378.044H534.538C533.676 378.044 532.977 378.753 532.977 379.627C532.977 380.501 533.676 381.21 534.538 381.21H537.381C538.244 381.21 538.943 380.501 538.943 379.627C538.943 378.753 538.244 378.044 537.381 378.044Z" fill="white"/>
<path d="M569.904 378.044H567.061C566.199 378.044 565.5 378.753 565.5 379.627C565.5 380.501 566.199 381.21 567.061 381.21H569.904C570.767 381.21 571.466 380.501 571.466 379.627C571.466 378.753 570.767 378.044 569.904 378.044Z" fill="white"/>
<path d="M579.119 378.044H576.276C575.413 378.044 574.715 378.753 574.715 379.627C574.715 380.501 575.413 381.21 576.276 381.21H579.119C579.981 381.21 580.68 380.501 580.68 379.627C580.68 378.753 579.981 378.044 579.119 378.044Z" fill="white"/>
<path d="M561.058 377.78H543.384C542.522 377.78 541.823 378.489 541.823 379.363C541.823 380.237 542.522 380.946 543.384 380.946H561.058C561.92 380.946 562.619 380.237 562.619 379.363C562.619 378.489 561.92 377.78 561.058 377.78Z" fill="white"/>
<path d="M604.422 377.78H586.748C585.886 377.78 585.187 378.489 585.187 379.363C585.187 380.237 585.886 380.946 586.748 380.946H604.422C605.284 380.946 605.983 380.237 605.983 379.363C605.983 378.489 605.284 377.78 604.422 377.78Z" fill="white"/>
<path d="M546.054 385.189H543.211C542.348 385.189 541.649 385.898 541.649 386.772C541.649 387.646 542.348 388.355 543.211 388.355H546.054C546.916 388.355 547.615 387.646 547.615 386.772C547.615 385.898 546.916 385.189 546.054 385.189Z" fill="white"/>
<path d="M578.577 385.189H575.734C574.871 385.189 574.172 385.898 574.172 386.772C574.172 387.646 574.871 388.355 575.734 388.355H578.577C579.439 388.355 580.138 387.646 580.138 386.772C580.138 385.898 579.439 385.189 578.577 385.189Z" fill="white"/>
<path d="M587.792 385.189H584.948C584.086 385.189 583.387 385.898 583.387 386.772C583.387 387.646 584.086 388.355 584.948 388.355H587.792C588.654 388.355 589.353 387.646 589.353 386.772C589.353 385.898 588.654 385.189 587.792 385.189Z" fill="white"/>
<path d="M569.731 384.925H552.057C551.195 384.925 550.496 385.634 550.496 386.508C550.496 387.382 551.195 388.091 552.057 388.091H569.731C570.593 388.091 571.292 387.382 571.292 386.508C571.292 385.634 570.593 384.925 569.731 384.925Z" fill="white"/>
<path d="M552.559 413.601H549.715C548.853 413.601 548.154 414.31 548.154 415.184C548.154 416.059 548.853 416.767 549.715 416.767H552.559C553.421 416.767 554.12 416.059 554.12 415.184C554.12 414.31 553.421 413.601 552.559 413.601Z" fill="white"/>
<path d="M561.774 413.601H558.93C558.068 413.601 557.369 414.31 557.369 415.184C557.369 416.059 558.068 416.767 558.93 416.767H561.774C562.636 416.767 563.335 416.059 563.335 415.184C563.335 414.31 562.636 413.601 561.774 413.601Z" fill="white"/>
<path d="M587.076 413.865H569.403C568.54 413.865 567.841 414.574 567.841 415.448C567.841 416.322 568.54 417.031 569.403 417.031H587.076C587.939 417.031 588.638 416.322 588.638 415.448C588.638 414.574 587.939 413.865 587.076 413.865Z" fill="white"/>
<path d="M520.036 413.601H517.192C516.33 413.601 515.631 414.31 515.631 415.184C515.631 416.059 516.33 416.767 517.192 416.767H520.036C520.898 416.767 521.597 416.059 521.597 415.184C521.597 414.31 520.898 413.601 520.036 413.601Z" fill="white"/>
<path d="M543.712 413.865H526.039C525.176 413.865 524.477 414.574 524.477 415.448C524.477 416.322 525.176 417.031 526.039 417.031H543.712C544.575 417.031 545.274 416.322 545.274 415.448C545.274 414.574 544.575 413.865 543.712 413.865Z" fill="white"/>
<path d="M528.709 406.456H525.865C525.003 406.456 524.304 407.165 524.304 408.039C524.304 408.913 525.003 409.622 525.865 409.622H528.709C529.571 409.622 530.27 408.913 530.27 408.039C530.27 407.165 529.571 406.456 528.709 406.456Z" fill="white"/>
<path d="M561.232 406.456H558.388C557.526 406.456 556.827 407.165 556.827 408.039C556.827 408.913 557.526 409.622 558.388 409.622H561.232C562.094 409.622 562.793 408.913 562.793 408.039C562.793 407.165 562.094 406.456 561.232 406.456Z" fill="white"/>
<path d="M570.446 406.456H567.603C566.741 406.456 566.042 407.165 566.042 408.039C566.042 408.913 566.741 409.622 567.603 409.622H570.446C571.309 409.622 572.008 408.913 572.008 408.039C572.008 407.165 571.309 406.456 570.446 406.456Z" fill="white"/>
<path d="M552.385 406.72H534.711C533.849 406.72 533.15 407.429 533.15 408.303C533.15 409.177 533.849 409.886 534.711 409.886H552.385C553.247 409.886 553.946 409.177 553.946 408.303C553.946 407.429 553.247 406.72 552.385 406.72Z" fill="white"/>
<path d="M537.381 399.311H534.538C533.676 399.311 532.977 400.02 532.977 400.894C532.977 401.768 533.676 402.477 534.538 402.477H537.381C538.244 402.477 538.943 401.768 538.943 400.894C538.943 400.02 538.244 399.311 537.381 399.311Z" fill="white"/>
<path d="M569.904 399.311H567.061C566.199 399.311 565.5 400.02 565.5 400.894C565.5 401.768 566.199 402.477 567.061 402.477H569.904C570.767 402.477 571.466 401.768 571.466 400.894C571.466 400.02 570.767 399.311 569.904 399.311Z" fill="white"/>
<path d="M579.119 399.311H576.276C575.413 399.311 574.715 400.02 574.715 400.894C574.715 401.768 575.413 402.477 576.276 402.477H579.119C579.981 402.477 580.68 401.768 580.68 400.894C580.68 400.02 579.981 399.311 579.119 399.311Z" fill="white"/>
<path d="M561.058 399.575H543.384C542.522 399.575 541.823 400.284 541.823 401.158C541.823 402.032 542.522 402.741 543.384 402.741H561.058C561.92 402.741 562.619 402.032 562.619 401.158C562.619 400.284 561.92 399.575 561.058 399.575Z" fill="white"/>
<path d="M546.054 392.166H543.211C542.348 392.166 541.649 392.875 541.649 393.749C541.649 394.623 542.348 395.332 543.211 395.332H546.054C546.916 395.332 547.615 394.623 547.615 393.749C547.615 392.875 546.916 392.166 546.054 392.166Z" fill="white"/>
<path d="M578.577 392.166H575.734C574.871 392.166 574.172 392.875 574.172 393.749C574.172 394.623 574.871 395.332 575.734 395.332H578.577C579.439 395.332 580.138 394.623 580.138 393.749C580.138 392.875 579.439 392.166 578.577 392.166Z" fill="white"/>
<path d="M587.792 392.166H584.948C584.086 392.166 583.387 392.875 583.387 393.749C583.387 394.623 584.086 395.332 584.948 395.332H587.792C588.654 395.332 589.353 394.623 589.353 393.749C589.353 392.875 588.654 392.166 587.792 392.166Z" fill="white"/>
<path d="M569.731 392.43H552.057C551.195 392.43 550.496 393.138 550.496 394.013C550.496 394.887 551.195 395.596 552.057 395.596H569.731C570.593 395.596 571.292 394.887 571.292 394.013C571.292 393.138 570.593 392.43 569.731 392.43Z" fill="white"/>
<path d="M504.917 497.34L491.568 475.944L533.47 442.074L550.765 422.645C553.012 420.12 555.873 418.239 559.062 417.187C562.251 416.135 565.657 415.95 568.938 416.651C572.22 417.352 575.262 418.914 577.762 421.18C580.262 423.447 582.131 426.339 583.183 429.568C584.742 434.353 584.407 439.564 582.248 444.103C580.089 448.642 576.276 452.153 571.613 453.895L544.264 464.111L504.917 497.34Z" fill="#FFB6B6"/>
<path d="M191.69 342.2V446.194H263.54V342.2C263.541 341.452 263.306 340.723 262.868 340.121C262.431 339.519 261.815 339.075 261.11 338.854C260.778 338.743 260.43 338.688 260.08 338.692H195.16C194.705 338.691 194.254 338.781 193.833 338.957C193.413 339.133 193.03 339.391 192.708 339.717C192.386 340.042 192.13 340.429 191.955 340.856C191.781 341.282 191.69 341.739 191.69 342.2ZM219.73 377.933C219.749 375.883 220.565 373.923 222.001 372.48C223.438 371.037 225.378 370.227 227.4 370.227C229.422 370.227 231.362 371.037 232.798 372.48C234.235 373.923 235.051 375.883 235.07 377.933V389.999C235.06 392.055 234.247 394.023 232.81 395.473C231.372 396.923 229.427 397.737 227.4 397.737C225.373 397.737 223.428 396.923 221.99 395.473C220.553 394.023 219.74 392.055 219.73 389.999V377.933Z" fill="#2F2E41"/>
<path d="M191.47 442.868V452.897C191.472 453.416 191.675 453.914 192.036 454.282C192.398 454.651 192.888 454.859 193.4 454.864H261.83C262.343 454.861 262.834 454.653 263.195 454.284C263.557 453.916 263.76 453.417 263.76 452.897V442.868H191.47Z" fill="#3F3D56"/>
<path d="M78.66 185.519V375.398C78.6619 377.818 79.6107 380.138 81.2981 381.849C82.9855 383.56 85.2736 384.522 87.66 384.524H365.16C367.546 384.522 369.834 383.56 371.522 381.849C373.209 380.138 374.158 377.818 374.16 375.398V185.519C374.154 183.102 373.204 180.785 371.517 179.076C369.83 177.368 367.544 176.407 365.16 176.404H87.66C85.2757 176.407 82.9898 177.368 81.3029 179.076C79.616 180.785 78.6657 183.102 78.66 185.519Z" fill="#3F3D56"/>
<path d="M85.17 187.882V373.056C85.1722 374.348 85.6796 375.588 86.5812 376.502C87.4828 377.416 88.705 377.931 89.98 377.933H362.85C364.125 377.931 365.347 377.416 366.249 376.502C367.15 375.588 367.658 374.348 367.66 373.056V187.882C367.66 186.587 367.153 185.346 366.252 184.43C365.35 183.513 364.127 182.997 362.85 182.994H89.98C88.7034 182.997 87.4801 183.513 86.5783 184.43C85.6766 185.346 85.1701 186.587 85.17 187.882Z" fill="white"/>
<path d="M135.81 454.184C136.088 454.538 136.441 454.822 136.843 455.017C137.244 455.212 137.685 455.312 138.13 455.31H300.47C300.914 455.309 301.352 455.208 301.753 455.015C302.154 454.821 302.507 454.539 302.786 454.189C303.066 453.839 303.265 453.431 303.37 452.993C303.474 452.556 303.481 452.1 303.39 451.66L300.87 439.522C300.766 439.027 300.541 438.567 300.216 438.182C299.891 437.798 299.476 437.502 299.01 437.322C298.672 437.187 298.313 437.119 297.95 437.119H140.64C140.277 437.119 139.918 437.187 139.58 437.322C139.114 437.502 138.699 437.798 138.374 438.182C138.049 438.567 137.824 439.027 137.72 439.522L135.2 451.66C135.11 452.1 135.119 452.555 135.224 452.992C135.33 453.428 135.53 453.836 135.81 454.184Z" fill="#2F2E41"/>
<path d="M353.995 208.503H98.6711C98.4057 208.497 98.1532 208.386 97.9676 208.193C97.782 208.001 97.6781 207.743 97.6781 207.473C97.6781 207.204 97.782 206.946 97.9676 206.753C98.1532 206.561 98.4057 206.45 98.6711 206.444H353.995C354.26 206.45 354.512 206.561 354.698 206.753C354.884 206.946 354.988 207.204 354.988 207.473C354.988 207.743 354.884 208.001 354.698 208.193C354.512 208.386 354.26 208.497 353.995 208.503Z" fill="#3F3D56"/>
<path d="M116.051 201.187C119.338 201.187 122.002 198.426 122.002 195.019C122.002 191.613 119.338 188.851 116.051 188.851C112.765 188.851 110.101 191.613 110.101 195.019C110.101 198.426 112.765 201.187 116.051 201.187Z" fill="#3F3D56"/>
<path d="M136.607 201.187C139.894 201.187 142.558 198.426 142.558 195.019C142.558 191.613 139.894 188.851 136.607 188.851C133.321 188.851 130.657 191.613 130.657 195.019C130.657 198.426 133.321 201.187 136.607 201.187Z" fill="#3F3D56"/>
<path d="M157.163 201.187C160.45 201.187 163.114 198.426 163.114 195.019C163.114 191.613 160.45 188.851 157.163 188.851C153.877 188.851 151.213 191.613 151.213 195.019C151.213 198.426 153.877 201.187 157.163 201.187Z" fill="#3F3D56"/>
<path d="M341.616 190.376H327.016C326.728 190.383 326.453 190.504 326.251 190.714C326.05 190.923 325.937 191.204 325.937 191.497C325.937 191.789 326.05 192.071 326.251 192.28C326.453 192.489 326.728 192.61 327.016 192.617H341.616C341.907 192.613 342.184 192.493 342.388 192.284C342.592 192.074 342.706 191.791 342.706 191.497C342.706 191.202 342.592 190.92 342.388 190.71C342.184 190.5 341.907 190.38 341.616 190.376Z" fill="#3F3D56"/>
<path d="M341.616 194.584H327.016C326.728 194.591 326.453 194.712 326.251 194.921C326.049 195.131 325.935 195.412 325.935 195.705C325.935 195.998 326.049 196.279 326.251 196.488C326.453 196.698 326.728 196.819 327.016 196.825H341.616C341.907 196.822 342.185 196.702 342.389 196.492C342.594 196.283 342.708 196 342.708 195.705C342.708 195.41 342.594 195.127 342.389 194.917C342.185 194.708 341.907 194.588 341.616 194.584Z" fill="#3F3D56"/>
<path d="M341.616 198.792H327.016C326.728 198.799 326.453 198.92 326.251 199.13C326.05 199.339 325.937 199.62 325.937 199.913C325.937 200.205 326.05 200.487 326.251 200.696C326.453 200.905 326.728 201.026 327.016 201.033H341.616C341.907 201.029 342.184 200.909 342.388 200.7C342.592 200.49 342.706 200.207 342.706 199.913C342.706 199.618 342.592 199.336 342.388 199.126C342.184 198.916 341.907 198.796 341.616 198.792Z" fill="#3F3D56"/>
<path d="M693.596 447.269C694.036 448.57 694.872 449.696 695.983 450.485C697.094 451.274 698.423 451.686 699.779 451.661L726.271 450.97C727.637 450.943 728.957 450.468 730.035 449.617C731.114 448.766 731.891 447.584 732.252 446.248L736 405.6C737.33 406.211 738.778 406.512 740.238 406.483C741.507 406.451 742.756 406.165 743.916 405.643C745.076 405.121 746.122 404.373 746.997 403.441C747.871 402.508 748.556 401.411 749.012 400.21C749.468 399.01 749.686 397.73 749.654 396.444C749.622 395.158 749.341 393.89 748.826 392.715C748.311 391.539 747.573 390.477 746.654 389.591C745.735 388.704 744.652 388.01 743.468 387.548C742.284 387.085 741.022 386.864 739.753 386.896C739.17 386.894 738.588 386.956 738.017 387.079C737.397 386.398 736.642 385.857 735.803 385.49C734.963 385.122 734.057 384.937 733.143 384.947L692.393 386.014C692.055 386.026 691.718 386.069 691.388 386.14C690.494 386.309 689.646 386.67 688.902 387.199C688.157 387.728 687.533 388.413 687.071 389.207C686.61 390.001 686.321 390.886 686.225 391.802C686.129 392.719 686.228 393.646 686.514 394.521L693.596 447.269ZM736.769 402.84L739.437 393.154C739.74 392.035 739.747 390.854 739.457 389.732C739.587 389.731 739.701 389.669 739.83 389.669C741.659 389.631 743.429 390.329 744.751 391.612C746.073 392.894 746.839 394.656 746.882 396.511C746.925 398.365 746.24 400.161 744.979 401.505C743.718 402.849 741.983 403.631 740.154 403.679C738.971 403.717 737.801 403.427 736.769 402.84Z" fill="#2F2E41"/>
<path d="M691.388 386.14C692.256 391.174 702.017 394.712 713.753 394.097C724.546 393.593 733.371 389.75 734.988 385.196C734.389 385.017 733.767 384.933 733.143 384.947L692.393 386.014C692.055 386.026 691.718 386.069 691.388 386.14Z" fill="#3F3D56"/>
<path d="M715.904 424.933C715.958 424.919 716.009 424.897 716.055 424.866L721.808 421.048C721.878 421.002 721.935 420.939 721.975 420.865C722.014 420.791 722.035 420.708 722.035 420.624C722.035 420.539 722.014 420.457 721.975 420.383C721.935 420.309 721.878 420.246 721.809 420.2L715.829 416.228C715.774 416.191 715.713 416.166 715.648 416.153C715.583 416.141 715.517 416.141 715.452 416.154C715.388 416.168 715.327 416.194 715.272 416.232C715.218 416.269 715.171 416.317 715.135 416.373C715.099 416.429 715.074 416.491 715.062 416.557C715.05 416.622 715.051 416.69 715.064 416.755C715.078 416.82 715.104 416.882 715.141 416.937C715.178 416.992 715.226 417.039 715.281 417.076L720.622 420.623L715.508 424.018C715.409 424.083 715.336 424.182 715.302 424.297C715.269 424.412 715.276 424.536 715.324 424.646C715.371 424.755 715.456 424.845 715.562 424.897C715.668 424.95 715.79 424.963 715.904 424.933Z" fill="#0284C7"/>
<path d="M706.818 425.358C706.914 425.333 707.001 425.28 707.068 425.205C707.134 425.129 707.177 425.036 707.19 424.936C707.204 424.836 707.188 424.734 707.144 424.643C707.1 424.552 707.03 424.477 706.944 424.427L701.641 421.344L706.766 417.484C706.819 417.444 706.863 417.394 706.897 417.337C706.931 417.28 706.953 417.217 706.963 417.151C706.972 417.085 706.969 417.018 706.953 416.953C706.937 416.889 706.908 416.828 706.869 416.775C706.83 416.721 706.781 416.676 706.725 416.642C706.668 416.608 706.606 416.585 706.541 416.576C706.476 416.566 706.41 416.569 706.346 416.586C706.283 416.602 706.223 416.631 706.17 416.67L700.432 420.993C700.365 421.043 700.312 421.109 700.276 421.185C700.241 421.261 700.225 421.345 700.23 421.429C700.235 421.513 700.261 421.595 700.304 421.666C700.348 421.738 700.409 421.797 700.481 421.839L706.446 425.306C706.559 425.372 706.692 425.39 706.818 425.358Z" fill="#0284C7"/>
<path d="M715.332 428.279C715.381 428.267 715.427 428.247 715.469 428.221C715.525 428.186 715.574 428.141 715.613 428.087C715.652 428.033 715.68 427.972 715.695 427.907C715.711 427.843 715.714 427.776 715.704 427.71C715.694 427.644 715.671 427.581 715.637 427.524L707.481 413.928C707.412 413.813 707.301 413.731 707.172 413.7C707.043 413.668 706.907 413.69 706.794 413.76C706.681 413.83 706.6 413.942 706.568 414.073C706.537 414.203 706.558 414.341 706.627 414.456L714.782 428.052C714.838 428.144 714.921 428.216 715.02 428.257C715.119 428.298 715.229 428.306 715.332 428.279Z" fill="#0284C7"/>
<path d="M256.84 264.474H212.649C210.846 264.474 209.385 265.956 209.385 267.784V272.162C209.385 273.99 210.846 275.472 212.649 275.472H256.84C258.642 275.472 260.104 273.99 260.104 272.162V267.784C260.104 265.956 258.642 264.474 256.84 264.474Z" fill="#E6E6E6"/>
<path d="M282.598 286.469H186.89C185.087 286.469 183.626 287.951 183.626 289.779V294.157C183.626 295.985 185.087 297.467 186.89 297.467H282.598C284.401 297.467 285.862 295.985 285.862 294.157V289.779C285.862 287.951 284.401 286.469 282.598 286.469Z" fill="#E6E6E6"/>
<path d="M282.598 308.464H186.89C185.087 308.464 183.626 309.946 183.626 311.774V316.151C183.626 317.979 185.087 319.461 186.89 319.461H282.598C284.401 319.461 285.862 317.979 285.862 316.151V311.774C285.862 309.946 284.401 308.464 282.598 308.464Z" fill="#E6E6E6"/>
<path d="M290.711 382.116L290.928 382.81L290.939 382.833L297.465 402.948L304.971 426.129L319.094 469.691L319.23 476.458V476.481L320.28 530.916L317.371 538.296L320.645 550.395C320.645 550.395 319.139 532.106 311.062 542.609C306.488 548.578 301.138 554.685 296.746 560.411C303.146 563.037 309.648 565.412 316.253 567.536C317.679 567.999 319.116 568.438 320.554 568.878C320.862 568.971 321.17 569.063 321.478 569.156C343.372 575.721 366.008 579.41 388.829 580.133C390.015 580.168 391.179 580.191 392.308 580.214C392.707 580.225 393.095 580.237 393.483 580.237C394.761 580.249 396.027 580.26 397.304 580.26C399.883 580.26 402.449 580.222 405.005 580.144C423.918 579.604 442.721 577.025 461.096 572.452C460.971 564.76 460.628 555.772 460.138 546.172C459.91 541.464 454.788 536.363 454.48 531.435C454.263 527.733 458.86 524.252 458.621 520.492C457.069 497.346 455.13 506.232 453.693 489.841C453.544 488.233 453.407 486.695 453.282 485.226C452.358 474.699 451.719 468.118 451.719 468.118L457.856 428.893L467.496 367.31L466.754 366.072L465.922 365.656L415.078 340.138L412.317 332.967C411.513 330.9 410.117 329.126 408.31 327.87C406.502 326.615 404.366 325.936 402.176 325.922L368.683 325.783C366.944 325.775 365.229 326.188 363.68 326.987C362.131 327.785 360.791 328.947 359.773 330.376L350.704 343.111L290.711 382.116Z" fill="#3F3D56"/>
<path d="M326.817 459.997L319.23 476.458L314.051 487.701L305.142 534.999L300.682 539.8L296.86 522.806L256.862 531.811C255.55 524.419 256.511 532.061 255.701 523.952C255.929 523.721 256.169 523.49 256.408 523.258C257.047 522.657 257.583 522.09 257.572 521.546C257.116 493.577 258.485 445.978 269.915 417.141C271.705 412.433 274.066 407.968 276.942 403.85C277.17 403.538 277.387 403.226 277.604 402.913C282.874 395.429 286.205 388.061 290.928 382.821V382.81C290.957 382.786 290.984 382.758 291.008 382.729C291.025 382.72 291.04 382.708 291.053 382.694L323.497 365.251L324.889 404.903L325.881 433.404L326.817 459.997Z" fill="#3F3D56"/>
<path d="M443.801 464.673L453.277 485.231L456.585 492.391L465.492 539.685L469.937 544.473L473.768 527.484L475.568 527.109L508.026 520.293L517.487 550.759C519.619 547.157 520.459 542.918 519.865 538.76C519.271 534.602 517.278 530.78 514.225 527.939C513.579 527.346 513.041 526.769 513.056 526.223C513.595 493.327 511.61 433.258 493.689 408.534C487.997 400.688 484.582 392.874 479.613 387.414C479.598 387.399 479.598 387.383 479.583 387.383L467.491 367.308L466.753 366.076L465.922 365.655L443.801 464.673Z" fill="#3F3D56"/>
<path d="M386.397 316.118C411.005 316.118 430.955 295.89 430.955 270.937C430.955 245.984 411.005 225.756 386.397 225.756C361.788 225.756 341.838 245.984 341.838 270.937C341.838 295.89 361.788 316.118 386.397 316.118Z" fill="#FFB6B6"/>
<path d="M446.622 239.378C446.277 239.004 445.861 238.704 445.398 238.497C444.936 238.289 444.438 238.179 443.932 238.171L444.602 236.285C444.821 235.691 444.88 235.049 444.773 234.424C444.667 233.799 444.398 233.215 443.995 232.73C443.592 232.245 443.069 231.877 442.48 231.664C441.891 231.452 441.257 231.402 440.642 231.52L438.202 231.996L438.432 230.343C438.52 229.728 438.449 229.1 438.225 228.52C438.001 227.941 437.633 227.431 437.155 227.04C436.678 226.65 436.109 226.392 435.503 226.291C434.898 226.191 434.277 226.253 433.702 226.47C433.179 226.679 432.617 226.766 432.056 226.726C431.496 226.685 430.951 226.518 430.462 226.237C429.972 225.964 429.546 225.586 429.214 225.129C428.882 224.671 428.653 224.146 428.542 223.59L427.692 219.433L427.602 219.21C423.462 212.213 415.502 207.123 405.762 205.257C397.092 203.584 388.202 204.436 379.632 205.237C376.232 205.562 372.392 205.927 369.192 207.914C366.472 209.618 364.172 213.025 364.642 216.462C356.192 213.836 347.132 219.078 342.642 225.689C337.322 233.558 336.452 243.414 336.312 251.12C335.932 269.351 339.642 284.267 347.312 295.461C347.872 296.273 348.012 297.966 349.122 298.534L348.892 298.159C350.132 298.787 351.392 299.801 350.922 300.886C349.572 304.009 358.542 310.914 364.862 313.196C376.392 317.363 391.722 317.009 402.502 315.508L402.882 312.922C406.772 312.385 409.512 311.361 410.282 309.759C411.642 308.582 412.802 307.528 413.812 306.554L413.822 306.544C413.842 306.524 413.882 306.494 413.902 306.473C418.772 301.738 419.902 299.041 420.412 294.934C420.902 290.909 420.032 286.822 419.142 283.142C437.882 286.082 411.762 262.902 429.222 258.421C429.422 258.358 429.626 258.307 429.832 258.269C430.342 258.147 430.852 258.025 431.342 257.883C433.704 257.233 435.966 256.254 438.062 254.973C442.942 251.962 444.552 247.966 447.072 243.464C447.436 242.823 447.588 242.081 447.507 241.346C447.426 240.611 447.116 239.922 446.622 239.378Z" fill="#2F2E41"/>
<path d="M543.992 467.889C543.982 469.664 543.962 472.148 543.882 475.22C543.872 475.646 543.862 476.082 543.852 476.528C543.722 482.176 543.592 486.912 543.382 492.174C543.372 492.539 543.362 492.894 543.342 493.259C543.062 500.6 542.622 509.148 541.862 522.685C540.452 547.69 537.992 526.122 535.522 534.893C535.402 535.329 535.272 535.847 535.152 536.455C534.778 538.662 534.147 540.817 533.272 542.873C531.962 543.664 530.612 544.425 529.282 545.185C525.492 547.325 521.642 549.383 517.762 551.34C515.582 552.435 513.392 553.51 511.192 554.544C510.842 554.707 510.502 554.869 510.162 555.021C498.896 560.305 487.286 564.797 475.412 568.466C473.092 569.176 470.782 569.866 468.442 570.504C466.002 571.194 463.562 571.843 461.092 572.451C442.718 577.025 423.915 579.605 405.002 580.147C402.452 580.229 399.882 580.259 397.302 580.259C396.022 580.259 394.762 580.249 393.482 580.239C393.092 580.239 392.702 580.229 392.312 580.218C391.182 580.188 390.012 580.168 388.832 580.137C366.011 579.416 343.376 575.725 321.482 569.156L320.552 568.882C319.112 568.436 317.682 568 316.252 567.534C309.652 565.414 303.149 563.042 296.742 560.415C291.852 558.418 287.019 556.275 282.242 553.987C282.199 553.975 282.158 553.954 282.122 553.926C281.122 553.459 280.112 552.973 279.112 552.476C278.982 552.405 278.842 552.334 278.702 552.263C274.972 550.417 271.282 548.484 267.632 546.463C264.562 539.314 260.242 537.945 257.562 531.659C256.782 529.791 256.219 527.838 255.882 525.838C255.882 525.818 255.872 525.798 255.872 525.768C256.152 529.54 254.682 519.075 255.862 525.727C255.852 525.605 255.842 525.473 255.832 525.321C255.802 524.956 255.762 524.51 255.702 523.952C252.272 489.994 252.492 451.159 251.002 419.157C250.902 417.089 250.799 415.108 250.692 413.215C250.662 412.587 250.622 411.968 250.582 411.36C250.652 411.177 250.732 410.985 250.822 410.802C250.841 410.749 250.865 410.699 250.892 410.65C250.922 410.587 250.955 410.526 250.992 410.467C251.012 410.437 251.042 410.396 251.062 410.366C251.077 410.331 251.094 410.297 251.112 410.265C251.202 410.123 251.302 409.971 251.412 409.829C251.462 409.768 251.502 409.717 251.552 409.666C251.587 409.615 251.627 409.567 251.672 409.524C251.703 409.476 251.74 409.431 251.782 409.393C251.822 409.352 251.862 409.301 251.912 409.251C251.934 409.219 251.961 409.191 251.992 409.17C252.071 409.077 252.158 408.993 252.252 408.916C252.609 408.583 252.99 408.278 253.392 408.003C253.532 407.912 253.682 407.821 253.822 407.72C254.83 407.108 255.891 406.592 256.992 406.178C257.372 406.036 257.752 405.905 258.162 405.763C258.312 405.722 258.452 405.671 258.602 405.621C258.822 405.55 259.042 405.479 259.272 405.428C260.412 405.083 261.642 404.789 262.972 404.515C263.132 404.485 263.302 404.455 263.472 404.414C263.712 404.363 263.962 404.323 264.212 404.282C264.552 404.221 264.902 404.161 265.252 404.1C268.222 403.623 271.592 403.268 275.312 403.035C275.662 403.015 276.012 402.994 276.362 402.974C276.772 402.954 277.182 402.934 277.602 402.913C277.952 402.893 278.312 402.883 278.672 402.873C279.022 402.852 279.382 402.842 279.752 402.832C280.762 402.802 281.802 402.771 282.862 402.751C285.882 402.69 289.062 402.711 292.402 402.782C293.952 402.822 295.532 402.863 297.152 402.934C297.262 402.934 297.362 402.944 297.462 402.944C298.872 402.994 300.292 403.055 301.752 403.136C302.772 403.187 303.802 403.238 304.832 403.299C305.802 403.36 306.782 403.42 307.772 403.491C308.542 403.532 309.312 403.593 310.092 403.643C310.752 403.694 311.412 403.745 312.072 403.785L312.972 403.846C313.462 403.887 313.952 403.917 314.452 403.968C315.552 404.059 316.652 404.15 317.772 404.242C318.882 404.343 320.012 404.444 321.142 404.546C322.272 404.647 323.412 404.759 324.552 404.87C324.672 404.88 324.782 404.891 324.892 404.901C325.932 405.012 326.972 405.114 328.022 405.225C328.262 405.245 328.512 405.266 328.752 405.296C329.753 405.398 330.774 405.518 331.784 405.626C332.094 405.66 332.403 405.693 332.714 405.728C333.505 405.815 334.285 405.891 335.082 405.986C336.132 406.107 337.202 406.219 338.242 406.361C339.052 406.452 339.862 406.543 340.672 406.645C341.942 406.797 343.232 406.959 344.522 407.131C345.012 407.192 345.502 407.253 345.992 407.324C349.672 407.791 353.392 408.308 357.172 408.845C362.902 409.666 368.722 410.559 374.582 411.522C380.452 412.485 386.356 413.503 392.292 414.574C393.792 414.848 395.292 415.122 396.802 415.406C397.482 415.537 398.162 415.669 398.842 415.801C400.002 416.014 401.162 416.237 402.322 416.46C403.482 416.683 404.642 416.906 405.802 417.139C407.182 417.413 408.572 417.687 409.952 417.961C419.042 419.786 428.082 421.733 436.902 423.771C438.352 424.105 439.802 424.45 441.242 424.785C444.122 425.464 446.976 426.154 449.802 426.853C450.582 427.036 451.352 427.229 452.122 427.421C454.042 427.908 455.962 428.395 457.852 428.892L458.182 428.983C459.572 429.328 460.932 429.682 462.292 430.047C465.502 430.899 468.659 431.761 471.762 432.633C473.822 433.211 475.859 433.796 477.872 434.387C480.882 435.269 483.832 436.162 486.702 437.064C487.412 437.287 488.122 437.51 488.822 437.723C490.922 438.382 492.992 439.052 495.002 439.721C496.602 440.248 498.162 440.786 499.702 441.323C501.242 441.86 502.752 442.398 504.232 442.935C505.182 443.28 506.122 443.645 507.062 443.99C508.412 444.497 509.742 445.004 511.042 445.511C511.442 445.663 511.832 445.825 512.222 445.977C512.472 446.089 512.712 446.18 512.952 446.281C513.422 446.474 513.902 446.656 514.362 446.849C514.832 447.032 515.292 447.224 515.752 447.427C516.202 447.61 516.662 447.802 517.102 447.995C517.552 448.177 517.992 448.37 518.432 448.573C518.802 448.725 519.162 448.887 519.512 449.05C520.222 449.364 520.932 449.678 521.622 450.003C521.962 450.165 522.302 450.317 522.642 450.479L523.422 450.844C523.532 450.905 523.642 450.956 523.752 451.007C524.002 451.128 524.262 451.26 524.512 451.382C525.092 451.655 525.662 451.95 526.222 452.223C526.972 452.609 527.702 452.994 528.402 453.369C529.112 453.754 529.802 454.14 530.462 454.515C530.572 454.576 530.672 454.637 530.782 454.697C530.932 454.778 531.082 454.87 531.232 454.951C531.742 455.245 532.232 455.549 532.722 455.843C533.682 456.441 534.592 457.03 535.442 457.618C535.632 457.749 535.812 457.881 536.002 458.003C536.632 458.459 537.232 458.905 537.792 459.362C537.792 459.372 537.792 459.372 537.802 459.372C537.992 459.514 538.172 459.666 538.352 459.808C538.502 459.95 538.662 460.071 538.812 460.213C539.332 460.67 539.812 461.106 540.252 461.552C540.4 461.69 540.54 461.835 540.672 461.988C540.73 462.037 540.784 462.091 540.832 462.15C541.032 462.353 541.212 462.556 541.382 462.758C541.409 462.786 541.432 462.817 541.452 462.85C541.692 463.134 541.912 463.418 542.122 463.702C542.222 463.844 542.332 463.985 542.422 464.127C542.542 464.3 542.662 464.482 542.762 464.655C542.852 464.797 542.932 464.949 543.012 465.091C543.224 465.456 543.405 465.84 543.552 466.237C543.665 466.506 543.755 466.784 543.822 467.068C543.898 467.337 543.955 467.612 543.992 467.889Z" fill="#2F2E41"/>
<path opacity="0.2" d="M543.992 467.889C543.982 469.664 543.962 472.148 543.882 475.22C543.872 475.646 543.852 476.082 543.842 476.528C543.742 480.838 543.592 486.161 543.382 492.174C543.372 492.539 543.362 492.894 543.342 493.259C543.062 500.6 542.622 509.148 541.862 522.685C540.452 547.69 537.992 526.122 535.522 534.893C528.662 530.614 521.142 526.133 513.102 521.529C511.652 520.698 510.189 519.863 508.712 519.025C492.632 509.929 474.672 500.398 455.922 490.957C455.182 490.582 454.432 490.207 453.692 489.842C410.742 468.315 363.862 447.376 325.882 433.404C318.552 430.707 311.552 428.273 304.972 426.133C291.112 421.642 279.132 418.498 269.912 417.139C260.312 415.72 253.682 416.227 251.002 419.157C250.902 417.089 250.799 415.108 250.692 413.215C250.652 412.587 250.612 411.968 250.572 411.36C250.634 411.193 250.714 411.034 250.792 410.873C250.803 410.849 250.811 410.825 250.822 410.802C250.841 410.749 250.865 410.699 250.892 410.65C250.922 410.587 250.955 410.526 250.992 410.467C251.025 410.396 251.065 410.328 251.112 410.265C251.202 410.123 251.302 409.971 251.412 409.829C251.493 409.722 251.58 409.621 251.672 409.524C251.703 409.476 251.74 409.431 251.782 409.393C251.822 409.352 251.862 409.301 251.912 409.251C251.934 409.219 251.961 409.191 251.992 409.17C252.071 409.077 252.158 408.993 252.252 408.916C252.609 408.583 252.99 408.278 253.392 408.003C253.532 407.912 253.682 407.821 253.822 407.719C254.83 407.108 255.891 406.592 256.992 406.178C257.372 406.036 257.752 405.904 258.162 405.763C258.312 405.722 258.452 405.671 258.602 405.621C258.822 405.55 259.042 405.479 259.272 405.428C260.412 405.083 261.642 404.789 262.972 404.515C263.372 404.434 263.792 404.353 264.212 404.282C264.552 404.221 264.902 404.16 265.252 404.1C268.222 403.623 271.592 403.268 275.312 403.035C275.662 403.015 276.012 402.994 276.362 402.974C276.772 402.954 277.182 402.933 277.602 402.913C277.952 402.893 278.312 402.883 278.672 402.873C279.022 402.852 279.382 402.842 279.752 402.832C280.762 402.802 281.802 402.771 282.862 402.751C285.882 402.7 289.062 402.721 292.402 402.792C293.952 402.822 295.532 402.873 297.152 402.944C297.252 402.944 297.362 402.954 297.462 402.954C298.872 402.994 300.302 403.065 301.752 403.136C302.772 403.187 303.802 403.238 304.832 403.299C305.802 403.359 306.782 403.42 307.772 403.491C308.542 403.532 309.312 403.593 310.092 403.643C310.752 403.694 311.412 403.745 312.072 403.785C312.862 403.846 313.652 403.907 314.452 403.968C315.552 404.059 316.652 404.15 317.772 404.242C318.882 404.343 320.012 404.444 321.142 404.546C322.272 404.647 323.412 404.759 324.552 404.87C324.672 404.88 324.782 404.891 324.892 404.901C325.932 405.012 326.972 405.114 328.022 405.225C333.842 405.823 339.832 406.523 345.992 407.324C349.672 407.801 353.399 408.311 357.172 408.855C362.902 409.676 368.722 410.569 374.582 411.522C380.452 412.485 386.356 413.503 392.292 414.574C393.792 414.848 395.292 415.122 396.802 415.406C398.642 415.75 400.482 416.102 402.322 416.46C403.482 416.683 404.642 416.906 405.802 417.139C407.182 417.413 408.572 417.687 409.952 417.961C419.042 419.786 428.082 421.733 436.902 423.771C438.352 424.105 439.802 424.45 441.242 424.785C444.122 425.464 446.976 426.154 449.802 426.853C450.582 427.046 451.352 427.239 452.122 427.431C454.052 427.918 455.962 428.405 457.852 428.891V428.902C457.962 428.922 458.072 428.952 458.182 428.983C459.562 429.338 460.932 429.693 462.292 430.058C465.502 430.909 468.659 431.768 471.762 432.633C473.822 433.221 475.862 433.799 477.872 434.387C480.882 435.28 483.832 436.172 486.702 437.064C487.412 437.287 488.122 437.51 488.822 437.723C490.922 438.393 492.982 439.058 495.002 439.721C496.602 440.248 498.162 440.786 499.702 441.323C501.242 441.86 502.752 442.398 504.232 442.935C505.192 443.28 506.132 443.635 507.062 443.98C508.422 444.487 509.742 444.994 511.042 445.511C511.442 445.663 511.832 445.825 512.222 445.977C512.952 446.261 513.662 446.555 514.362 446.849C514.832 447.032 515.292 447.224 515.752 447.427C516.202 447.61 516.662 447.802 517.102 447.995C517.552 448.177 517.992 448.37 518.432 448.573C518.802 448.725 519.162 448.887 519.512 449.049C520.222 449.364 520.932 449.678 521.622 450.003C521.962 450.165 522.302 450.317 522.642 450.479L523.422 450.844C523.532 450.905 523.642 450.956 523.752 451.006C524.602 451.412 525.422 451.818 526.222 452.223C526.972 452.609 527.702 452.994 528.402 453.369C529.232 453.815 530.022 454.251 530.782 454.697C530.932 454.778 531.082 454.87 531.232 454.951C531.742 455.245 532.232 455.549 532.722 455.843C533.682 456.441 534.592 457.029 535.442 457.618C536.282 458.206 537.062 458.784 537.792 459.362C537.792 459.372 537.792 459.372 537.802 459.372C538.152 459.656 538.492 459.94 538.812 460.213C539.332 460.67 539.812 461.106 540.252 461.552C540.4 461.69 540.54 461.835 540.672 461.988C540.73 462.037 540.784 462.091 540.832 462.15C541.042 462.383 541.252 462.617 541.452 462.85C541.692 463.134 541.912 463.418 542.122 463.701C542.222 463.843 542.332 463.985 542.422 464.127C542.542 464.3 542.662 464.482 542.762 464.655C542.852 464.797 542.932 464.949 543.012 465.091C543.224 465.456 543.405 465.839 543.552 466.236C543.662 466.507 543.752 466.785 543.822 467.068C543.898 467.337 543.955 467.612 543.992 467.889Z" fill="black"/>
</g>
<defs>
<clipPath id="clip0_3_2">
<rect width="786.82" height="580.26" fill="white"/>
</clipPath>
</defs>
</svg>
